# File created by Blade
# Date/Time:  Wed Jan 21 19:03:07 2015
# Frame Rate: 120.000 fps
#------------------------------------------------------
:FULLY-SPECIFIED
:DEGREES
1944
root -3.426445 29.658869 -9.775974 135.629056 25.237742 6.786550
RightUpLeg -121.854308 -18.147752 26.284425
RightLeg -5.577070 -0.000000 0.000000
RightFoot -18.187408 -12.913295 45.690831
RightToeBase 21.971092 -0.000000 -0.000000
LeftUpLeg -145.752194 1.968440 -14.340433
LeftLeg -6.869354 -0.000000 0.000000
LeftFoot 16.729622 -11.894976 -20.645439
LeftToeBase 9.622164 -0.000000 -0.000000
Spine 10.873980 6.930717 -17.274000
RightShoulder 8.115441 32.727362 -52.314361
RightArm 34.114398 13.322082 74.123919
RightForeArm 67.694766 -0.000000 109.119790
RightHand 14.567616 -0.000000 -38.794121
RightHandThumb1 -24.326973 -0.000000 -32.862282
LeftShoulder 32.386149 53.857472 31.787230
LeftArm 159.274257 -28.077728 -104.346920
LeftForeArm -24.740722 -0.000000 90.441211
LeftHand -30.895800 -0.000000 -3.195606
LeftHandThumb1 -26.253704 0.000000 33.147579
Head 28.928442 10.658510 -23.649924
1945
root -3.426790 29.657721 -9.785164 135.628847 25.213627 6.743588
RightUpLeg -121.881152 -18.182185 26.197179
RightLeg -5.544815 -0.000000 0.000000
RightFoot -18.248240 -12.860864 45.736646
RightToeBase 22.165276 -0.000000 -0.000000
LeftUpLeg -145.765995 1.938057 -14.418431
LeftLeg -6.893205 -0.000000 0.000000
LeftFoot 16.673366 -11.873297 -20.688734
LeftToeBase 9.648260 -0.000000 -0.000000
Spine 10.973083 7.022643 -17.260142
RightShoulder 8.293730 33.024258 -52.238682
RightArm 34.078016 13.495318 74.875290
RightForeArm 67.132268 -0.000000 109.329179
RightHand 14.976981 -0.000000 -38.199198
RightHandThumb1 -24.326973 -0.000000 -32.862282
LeftShoulder 32.265802 53.800864 31.721743
LeftArm 159.283787 -27.963172 -104.327309
LeftForeArm -24.786186 -0.000000 90.552471
LeftHand -30.905534 -0.000000 -3.107022
LeftHandThumb1 -26.253704 0.000000 33.147579
Head 28.497225 10.596212 -24.000189
1946
root -3.426764 29.656219 -9.795186 135.630349 25.177776 6.699445
RightUpLeg -121.938278 -18.197758 26.141644
RightLeg -5.504984 -0.000000 0.000000
RightFoot -18.330088 -12.737739 45.835464
RightToeBase 22.470572 -0.000000 -0.000000
LeftUpLeg -145.795022 1.890003 -14.512923
LeftLeg -6.887885 -0.000000 0.000000
LeftFoot 16.595288 -11.837371 -20.782340
LeftToeBase 9.710592 -0.000000 -0.000000
Spine 11.066471 7.156870 -17.249658
RightShoulder 8.405407 33.309090 -52.184911
RightArm 33.996107 13.594170 75.562578
RightForeArm 66.598567 0.000000 109.605341
RightHand 15.076730 0.000000 -38.668434
RightHandThumb1 -24.326973 -0.000000 -32.862282
LeftShoulder 32.170627 53.705920 31.687637
LeftArm 159.248432 -27.866438 -104.292217
LeftForeArm -24.812237 -0.000000 90.652648
LeftHand -30.893706 -0.000000 -3.062865
LeftHandThumb1 -26.253704 0.000000 33.147579
Head 28.098242 10.504532 -24.311678
1947
root -3.426801 29.655819 -9.804674 135.625137 25.134658 6.640078
RightUpLeg -122.034586 -18.163771 26.136207
RightLeg -5.412929 -0.000000 0.000000
RightFoot -18.273181 -12.610378 45.693108
RightToeBase 22.541109 -0.000000 -0.000000
LeftUpLeg -145.808809 1.866519 -14.612610
LeftLeg -6.904813 -0.000000 0.000000
LeftFoot 16.512699 -11.787484 -20.865315
LeftToeBase 9.822911 -0.000000 -0.000000
Spine 11.151847 7.325394 -17.256032
RightShoulder 8.533341 33.599878 -52.117884
RightArm 33.872979 13.755397 76.232905
RightForeArm 66.110036 0.000000 109.904879
RightHand 15.105478 -0.000000 -38.900647
RightHandThumb1 -24.326973 -0.000000 -32.862282
LeftShoulder 32.115729 53.614046 31.715817
LeftArm 159.238292 -27.745241 -104.275653
LeftForeArm -24.793121 -0.000000 90.720979
LeftHand -30.891884 -0.000000 -3.065722
LeftHandThumb1 -26.253704 0.000000 33.147579
Head 27.709906 10.389173 -24.591282
1948
root -3.425634 29.655289 -9.813672 135.608772 25.083734 6.587387
RightUpLeg -122.137528 -18.101057 26.194162
RightLeg -5.337376 -0.000000 0.000000
RightFoot -18.139040 -12.462741 45.405113
RightToeBase 22.662904 -0.000000 -0.000000
LeftUpLeg -145.796264 1.845789 -14.705891
LeftLeg -6.937850 -0.000000 0.000000
LeftFoot 16.454752 -11.752794 -20.909657
LeftToeBase 9.780791 -0.000000 -0.000000
Spine 11.265286 7.468787 -17.251979
RightShoulder 8.682133 33.916418 -52.001753
RightArm 33.800860 13.910362 76.877512
RightForeArm 65.399688 0.000000 110.173011
RightHand 15.013564 0.000000 -39.127288
RightHandThumb1 -24.326973 -0.000000 -32.862282
LeftShoulder 31.947567 53.507629 31.623476
LeftArm 159.177768 -27.642473 -104.208742
LeftForeArm -24.818865 -0.000000 90.775279
LeftHand -30.847893 0.000000 -3.037388
LeftHandThumb1 -26.253704 0.000000 33.147579
Head 27.260518 10.304441 -24.927790
1949
root -3.422141 29.654703 -9.823325 135.596365 25.036981 6.550649
RightUpLeg -122.261778 -18.036186 26.292684
RightLeg -5.225900 -0.000000 0.000000
RightFoot -17.878226 -12.317014 44.929237
RightToeBase 22.499331 -0.000000 -0.000000
LeftUpLeg -145.790410 1.819024 -14.780787
LeftLeg -6.946275 -0.000000 0.000000
LeftFoot 16.392419 -11.721121 -21.012598
LeftToeBase 9.799473 -0.000000 -0.000000
Spine 11.393235 7.589699 -17.216812
RightShoulder 8.777726 34.341768 -51.941716
RightArm 33.600878 14.007217 77.445111
RightForeArm 65.088984 -0.000000 110.471829
RightHand 15.001793 -0.000000 -39.302713
RightHandThumb1 -24.326973 -0.000000 -32.862282
LeftShoulder 31.703676 53.379980 31.435879
LeftArm 159.034269 -27.584849 -104.062247
LeftForeArm -24.796325 -0.000000 90.802715
LeftHand -30.533623 0.000000 -2.809980
LeftHandThumb1 -26.253704 0.000000 33.147579
Head 26.781622 10.269811 -25.323219
1950
root -3.420372 29.654985 -9.833285 135.575099 24.983232 6.497497
RightUpLeg -122.394233 -17.942497 26.405266
RightLeg -5.123341 -0.000000 0.000000
RightFoot -17.678736 -12.103738 44.550811
RightToeBase 22.595566 -0.000000 -0.000000
LeftUpLeg -145.797691 1.792716 -14.879036
LeftLeg -6.929167 -0.000000 0.000000
LeftFoot 16.319824 -11.700184 -21.159253
LeftToeBase 9.830654 -0.000000 -0.000000
Spine 11.511354 7.751628 -17.206963
RightShoulder 8.850491 34.509713 -51.912003
RightArm 33.609466 14.164853 78.012453
RightForeArm 64.653708 -0.000000 110.747550
RightHand 14.939411 -0.000000 -39.593040
RightHandThumb1 -24.326973 -0.000000 -32.862282
LeftShoulder 31.508284 53.301676 31.285436
LeftArm 159.039574 -27.499814 -103.984919
LeftForeArm -24.955200 -0.000000 90.813815
LeftHand -30.716424 -0.000000 -2.959956
LeftHandThumb1 -26.253704 0.000000 33.147579
Head 26.357636 10.238647 -25.630187
1951
root -3.416377 29.655542 -9.843154 135.561440 24.930037 6.460524
RightUpLeg -122.531419 -17.857229 26.545353
RightLeg -5.035802 -0.000000 0.000000
RightFoot -17.568841 -11.795940 44.403316
RightToeBase 22.935867 -0.000000 -0.000000
LeftUpLeg -145.804198 1.772484 -14.956070
LeftLeg -6.906066 -0.000000 0.000000
LeftFoot 16.231208 -11.724207 -21.226993
LeftToeBase 9.854732 -0.000000 -0.000000
Spine 11.638967 7.905064 -17.164224
RightShoulder 8.956611 34.742749 -51.890254
RightArm 33.510726 14.347043 78.577214
RightForeArm 64.102402 -0.000000 110.964378
RightHand 15.026900 -0.000000 -39.351656
RightHandThumb1 -24.326973 -0.000000 -32.862282
LeftShoulder 31.262058 53.189889 31.068900
LeftArm 158.952936 -27.394736 -103.853705
LeftForeArm -25.007193 -0.000000 90.821867
LeftHand -30.723017 0.000000 -3.129903
LeftHandThumb1 -26.253704 0.000000 33.147579
Head 25.923746 10.221062 -26.022527
1952
root -3.413479 29.654832 -9.851916 135.545757 24.882792 6.417537
RightUpLeg -122.639714 -17.775379 26.651068
RightLeg -4.965376 -0.000000 0.000000
RightFoot -17.395579 -11.599126 43.908703
RightToeBase 23.120485 -0.000000 -0.000000
LeftUpLeg -145.806652 1.759956 -15.033925
LeftLeg -6.898356 -0.000000 0.000000
LeftFoot 16.163283 -11.744764 -21.299025
LeftToeBase 9.794984 -0.000000 -0.000000
Spine 11.745339 8.058852 -17.139560
RightShoulder 9.033969 35.066070 -51.825467
RightArm 33.343259 14.485524 79.086992
RightForeArm 63.796505 -0.000000 111.235206
RightHand 14.784150 -0.000000 -39.306792
RightHandThumb1 -24.326973 -0.000000 -32.862282
LeftShoulder 31.061848 53.064656 30.930673
LeftArm 158.810776 -27.329297 -103.718716
LeftForeArm -25.053059 -0.000000 90.846335
LeftHand -30.572326 -0.000000 -3.084398
LeftHandThumb1 -26.253704 0.000000 33.147579
Head 25.579777 10.259988 -26.317568
1953
root -3.410766 29.653690 -9.861358 135.528776 24.832923 6.387044
RightUpLeg -122.737129 -17.718168 26.744173
RightLeg -4.893238 -0.000000 0.000000
RightFoot -17.072208 -11.500113 43.026264
RightToeBase 22.909322 -0.000000 -0.000000
LeftUpLeg -145.766944 1.800531 -15.058390
LeftLeg -6.947565 -0.000000 0.000000
LeftFoot 16.079397 -11.686250 -21.272540
LeftToeBase 9.685331 -0.000000 -0.000000
Spine 11.849966 8.211826 -17.108574
RightShoulder 9.085938 35.285426 -51.803939
RightArm 33.257487 14.581263 79.596552
RightForeArm 63.458041 -0.000000 111.419900
RightHand 15.219726 -0.000000 -38.891368
RightHandThumb1 -24.326973 -0.000000 -32.862282
LeftShoulder 30.886077 52.963666 30.805710
LeftArm 158.701841 -27.236051 -103.569284
LeftForeArm -25.060718 0.000000 90.852279
LeftHand -30.504094 0.000000 -3.112296
LeftHandThumb1 -26.253704 0.000000 33.147579
Head 25.281501 10.356363 -26.569152
